HIERARCHY
ROOT Hips
{
	OFFSET 0.000000 0.000000 0.000000
	CHANNELS 6 Xposition Yposition Zposition Zrotation Yrotation Xrotation 
	JOINT LHipJoint
	{
		OFFSET 0.000000 0.000000 0.000000
		CHANNELS 3 Zrotation Yrotation Xrotation
		JOINT LeftUpLeg
		{
			OFFSET 1.363060 -1.794630 0.839290
			CHANNELS 3 Zrotation Yrotation Xrotation
			JOINT LeftLeg
			{
				OFFSET 2.448110 -6.726130 0.000000
				CHANNELS 3 Zrotation Yrotation Xrotation
				JOINT LeftFoot
				{
					OFFSET 2.562200 -7.039590 0.000000
					CHANNELS 3 Zrotation Yrotation Xrotation
					JOINT LeftToeBase
					{
						OFFSET 0.157640 -0.433110 2.322550
						CHANNELS 3 Zrotation Yrotation Xrotation
						End Site
						{
							OFFSET 0.000000 0.000000 0.000000
						}
					}
				}
			}
		}
	}
	JOINT RHipJoint
	{
		OFFSET 0.000000 0.000000 0.000000
		CHANNELS 3 Zrotation Yrotation Xrotation
		JOINT RightUpLeg
		{
			OFFSET -1.305520 -1.794630 0.839290
			CHANNELS 3 Zrotation Yrotation Xrotation
			JOINT RightLeg
			{
				OFFSET -2.542530 -6.985550 0.000000
				CHANNELS 3 Zrotation Yrotation Xrotation
				JOINT RightFoot
				{
					OFFSET -2.568260 -7.056230 0.000000
					CHANNELS 3 Zrotation Yrotation Xrotation
					JOINT RightToeBase
					{
						OFFSET -0.164730 -0.452590 2.363150
						CHANNELS 3 Zrotation Yrotation Xrotation
						End Site
						{
							OFFSET 0.000000 0.000000 0.000000
						}
					}
				}
			}
		}
	}
	JOINT LowerBack
	{
		OFFSET 0.000000 0.000000 0.000000
		CHANNELS 3 Zrotation Yrotation Xrotation
		JOINT Spine
		{
			OFFSET 0.028270 2.035590 -0.193380
			CHANNELS 3 Zrotation Yrotation Xrotation
			JOINT Spine1
			{
				OFFSET 0.056720 2.048850 -0.042750
				CHANNELS 3 Zrotation Yrotation Xrotation
				JOINT Neck
				{
					OFFSET 0.000000 0.000000 0.000000
					CHANNELS 3 Zrotation Yrotation Xrotation
					JOINT Neck1
					{
						OFFSET -0.054170 1.746240 0.172020
						CHANNELS 3 Zrotation Yrotation Xrotation
						JOINT Head
						{
							OFFSET 0.104070 1.761360 -0.123970
							CHANNELS 3 Zrotation Yrotation Xrotation
							End Site
							{
								OFFSET 0.000000 0.000000 0.000000
							}
						}
					}
				}
				JOINT LeftShoulder
				{
					OFFSET 0.000000 0.000000 0.000000
					CHANNELS 3 Zrotation Yrotation Xrotation
					JOINT LeftArm
					{
						OFFSET 3.362410 1.200890 -0.311210
						CHANNELS 3 Zrotation Yrotation Xrotation
						JOINT LeftForeArm
						{
							OFFSET 4.983000 -0.000000 -0.000000
							CHANNELS 3 Zrotation Yrotation Xrotation
							JOINT LeftHand
							{
								OFFSET 3.483560 -0.000000 -0.000000
								CHANNELS 3 Zrotation Yrotation Xrotation
								JOINT LeftFingerBase
								{
									OFFSET 0.000000 0.000000 0.000000
									CHANNELS 3 Zrotation Yrotation Xrotation
									JOINT LeftHandIndex1
									{
										OFFSET 0.715260 -0.000000 -0.000000
										CHANNELS 3 Zrotation Yrotation Xrotation
										End Site
										{
											OFFSET 0.000000 0.000000 0.000000
										}
									}
								}
								JOINT LThumb
								{
									OFFSET 0.000000 0.000000 0.000000
									CHANNELS 3 Zrotation Yrotation Xrotation
									End Site
									{
										OFFSET 0.000000 0.000000 0.000000
									}
								}
							}
						}
					}
				}
				JOINT RightShoulder
				{
					OFFSET 0.000000 0.000000 0.000000
					CHANNELS 3 Zrotation Yrotation Xrotation
					JOINT RightArm
					{
						OFFSET -3.136600 1.374050 -0.404650
						CHANNELS 3 Zrotation Yrotation Xrotation
						JOINT RightForeArm
						{
							OFFSET -5.241900 -0.000000 -0.000000
							CHANNELS 3 Zrotation Yrotation Xrotation
							JOINT RightHand
							{
								OFFSET -3.444170 -0.000000 -0.000000
								CHANNELS 3 Zrotation Yrotation Xrotation
								JOINT RightFingerBase
								{
									OFFSET 0.000000 0.000000 0.000000
									CHANNELS 3 Zrotation Yrotation Xrotation
									JOINT RightHandIndex1
									{
										OFFSET -0.622530 -0.000000 -0.000000
										CHANNELS 3 Zrotation Yrotation Xrotation
										End Site
										{
											OFFSET 0.000000 0.000000 0.000000
										}
									}
								}
								JOINT RThumb
								{
									OFFSET 0.000000 0.000000 0.000000
									CHANNELS 3 Zrotation Yrotation Xrotation
									End Site
									{
										OFFSET 0.000000 0.000000 0.000000
									}
								}
							}
						}
					}
				}
			}
		}
	}
}
MOTION
Frames: 10
Frame Time: 0.008333
10.302718 17.893144 -43.841309 -3.439835 -5.982784 -2.835674 0.397901 2.134448 1.152220 -8.228220 -21.220540 -13.846995 -1.784592 8.736716 24.449355 2.584500 -3.129090 13.698233 2.375200 -9.607400 -27.714400 -3.824840 -3.073160 1.555319 36.057244 10.688827 1.749996 2.850936 -6.378000 21.324472 7.216488 -28.577443 -21.285832 -1.110300 -6.694400 18.813200 3.255395 0.883301 6.560812 4.605018 1.125955 14.408597 -4.104779 0.879587 -9.702294 -2.146938 0.175091 -13.695779 0.597457 0.305855 5.998540 -2.635500 -0.016900 2.772200 -1.447809 -11.029596 0.960923 -88.973309 -1.408258 28.213816 25.692813 -25.795195 -7.113247 1.435634 0.904474 11.934251 9.058169 -31.636652 -4.297200 -7.125000 0.000000 0.000000 -13.500700 -2.412200 14.457700 -0.474249 11.304971 2.200139 84.554480 -0.990779 51.997720 -20.551758 23.548297 -5.805930 1.211546 0.233828 8.175769 -10.337001 -51.674219 9.086300 7.125000 0.000000 0.000000 62.675700 -75.143000 -48.343700 
10.304245 17.894201 -43.845302 -3.432740 -6.078924 -2.830274 0.392854 2.134315 1.155527 -8.223907 -21.161377 -13.857914 -1.787199 8.733183 24.430609 2.561067 -3.048239 13.639006 2.440400 -9.728700 -28.102600 -3.828390 -3.070394 1.555718 36.073927 10.840762 1.795998 2.858228 -6.377679 21.328410 7.190982 -28.564216 -21.464585 -1.153600 -6.819500 19.181800 3.329066 0.887638 6.542078 4.540505 1.141490 14.426075 -4.150358 0.882454 -9.682537 -2.190760 0.189981 -13.652371 0.685916 0.309100 5.924634 -2.597100 -0.016100 2.738000 -1.433964 -11.046583 0.969891 -88.916346 -1.438080 28.371102 25.754687 -25.869716 -7.155695 1.419599 0.919591 11.950168 9.512194 -31.854330 -4.587200 -7.125000 0.000000 0.000000 -13.254300 -2.701800 14.243800 -0.469388 11.298010 2.186905 84.662149 -0.756338 52.008689 -20.407556 23.388588 -5.759659 1.212189 0.249235 7.952353 -9.999980 -51.953995 8.852300 7.125000 0.000000 0.000000 63.918500 -75.121500 -49.428600 
10.306594 17.894084 -43.846124 -3.444575 -6.207064 -2.797734 0.388307 2.135634 1.161015 -8.186240 -21.130925 -13.871011 -1.784926 8.735317 24.423138 2.525224 -2.925918 13.552071 2.459600 -9.764100 -28.216100 -3.833627 -3.066120 1.560289 36.112623 11.039435 1.852748 2.873480 -6.364952 21.298892 7.136730 -28.483830 -21.669950 -1.281600 -7.174100 20.232100 3.444200 0.896696 6.329515 4.477017 1.152987 14.546926 -4.210799 0.884417 -9.503258 -2.149459 0.221880 -13.674838 0.667037 0.342347 5.851862 -2.611400 -0.003900 2.725500 -1.419305 -11.076355 0.971785 -88.862346 -1.636114 28.396141 25.730253 -25.842603 -7.144623 1.417218 0.926634 12.172969 9.818767 -31.916394 -4.772200 -7.125000 0.000000 0.000000 -13.085800 -2.818400 14.078500 -0.474398 11.302191 2.174913 84.725514 -0.568515 51.957416 -20.369970 23.339509 -5.742344 1.215465 0.248368 8.102439 -9.791087 -51.908211 8.682400 7.125000 0.000000 0.000000 63.893600 -75.029500 -49.307300 
10.308473 17.894906 -43.848708 -3.500304 -6.330324 -2.724227 0.396363 2.128188 1.155839 -8.093952 -21.105678 -13.924499 -1.784394 8.734246 24.402487 2.484539 -2.777666 13.631264 2.462700 -9.769700 -28.234200 -3.833239 -3.054492 1.558409 36.168663 11.164403 1.824944 2.884908 -6.359816 21.271990 7.081091 -28.366795 -21.756581 -1.374300 -7.418800 20.962100 3.541787 0.893618 6.196178 4.514860 1.146473 14.570868 -4.255316 0.876350 -9.408293 -2.128396 0.261460 -13.763442 0.616608 0.410693 5.887691 -2.633600 0.028600 2.761100 -1.422797 -11.090874 0.969096 -88.855398 -1.840166 28.454953 25.749607 -25.846975 -7.132607 1.425700 0.901989 11.985789 9.248759 -31.386605 -4.377800 -7.125000 0.000000 0.000000 -13.374900 -2.192300 14.265300 -0.478570 11.315719 2.175019 84.745955 -0.510829 51.937117 -20.355142 23.311226 -5.727292 1.219818 0.237782 8.397425 -9.878002 -51.711117 8.731400 7.125000 0.000000 0.000000 63.128900 -74.991300 -48.584300 
10.309530 17.895845 -43.852584 -3.532026 -6.453039 -2.702134 0.403757 2.127985 1.155957 -8.048183 -21.043090 -13.950188 -1.785022 8.732069 24.386799 2.446724 -2.646159 13.704684 2.541500 -9.913000 -28.695500 -3.834381 -3.050313 1.552661 36.192771 11.175844 1.801027 2.882024 -6.364171 21.270402 7.089867 -28.355279 -21.634476 -1.279700 -7.168900 20.216700 3.600576 0.898992 6.233383 4.547265 1.160424 14.530038 -4.284515 0.877422 -9.441928 -2.139200 0.286851 -13.852213 0.606035 0.466718 5.979678 -2.636000 0.058500 2.809700 -1.427266 -11.085161 0.973348 -88.818045 -1.913091 28.627015 25.742187 -25.837675 -7.134005 1.413234 0.915789 11.861127 9.566058 -31.504395 -4.574800 -7.125000 0.000000 0.000000 -13.200300 -2.361300 14.106600 -0.477393 11.325016 2.175763 84.793941 -0.518432 51.914703 -20.324734 23.267446 -5.703940 1.223650 0.228210 8.582124 -10.106396 -51.468036 8.886400 7.125000 0.000000 0.000000 62.108300 -74.985300 -47.672800 
10.310469 17.897489 -43.856929 -3.475953 -6.596976 -2.715132 0.395639 2.134260 1.164484 -8.097695 -20.948617 -13.950557 -1.784142 8.737878 24.388549 2.392149 -2.485462 13.554908 2.687200 -10.170600 -29.530800 -3.835896 -3.054060 1.552429 36.120766 11.178714 1.797219 2.873616 -6.366944 21.275486 7.109591 -28.335138 -21.428713 -1.238200 -7.056100 19.881700 3.616866 0.929612 6.225323 4.484942 1.205967 14.569588 -4.299827 0.897955 -9.420928 -2.117223 0.304672 -13.904575 0.587128 0.499034 6.014529 -2.646200 0.075000 2.833500 -1.417857 -11.085859 0.976848 -88.764376 -1.989936 28.757010 25.761263 -25.864219 -7.153958 1.404199 0.928623 11.919262 9.916674 -31.727557 -4.806000 -7.125000 0.000000 0.000000 -13.014800 -2.642500 13.959600 -0.478018 11.331235 2.171348 84.867783 -0.443676 51.871189 -20.293753 23.234944 -5.699280 1.222916 0.228761 8.655073 -10.253076 -51.670337 9.026300 7.125000 0.000000 0.000000 62.728200 -75.115300 -48.360800 
10.311409 17.897842 -43.861744 -3.398064 -6.647026 -2.722639 0.391064 2.132058 1.158717 -8.171124 -20.941315 -13.944057 -1.788787 8.735565 24.377593 2.371571 -2.438220 13.505504 2.601000 -10.019300 -29.039300 -3.822207 -3.057608 1.554951 36.009889 11.155995 1.770397 2.869111 -6.369158 21.285236 7.093420 -28.257684 -21.363725 -1.274100 -7.153900 20.172200 3.510916 0.914212 6.322864 4.539880 1.180299 14.471454 -4.243202 0.889623 -9.524534 -2.196392 0.350463 -13.803198 0.583430 0.566478 6.056888 -2.631600 0.110700 2.831000 -1.428804 -11.075310 0.973994 -88.860677 -1.931145 28.682544 25.822207 -25.933567 -7.184115 1.404146 0.921009 11.991085 9.813133 -31.649906 -4.737600 -7.125000 0.000000 0.000000 -13.066500 -2.545600 13.996600 -0.471649 11.328734 2.178235 84.865582 -0.507824 51.942553 -20.248505 23.192178 -5.699018 1.219033 0.232639 8.726819 -10.256846 -52.107354 9.078500 7.125000 0.000000 0.000000 64.305100 -75.271100 -49.936200 
10.311996 17.895845 -43.864445 -3.374309 -6.669068 -2.747868 0.390542 2.137164 1.162237 -8.187271 -21.001441 -13.898114 -1.799006 8.714065 24.337076 2.382816 -2.475599 13.692738 2.320000 -9.503000 -27.381800 -3.812656 -3.063874 1.560277 35.971676 11.100581 1.755739 2.862534 -6.376692 21.305634 7.115043 -28.296070 -21.310174 -1.226400 -7.023800 19.785800 3.450040 0.869778 6.286162 4.636413 1.104750 14.486960 -4.191467 0.860946 -9.499397 -2.285879 0.413892 -13.757082 0.551686 0.661308 6.069686 -2.626400 0.156000 2.833500 -1.430998 -11.079787 0.969987 -88.959404 -1.944105 28.547805 25.901129 -26.026046 -7.228695 1.398011 0.923469 11.949360 9.906642 -31.744332 -4.804800 -7.125000 0.000000 0.000000 -13.018000 -2.652000 13.965300 -0.477765 11.327701 2.181340 84.802475 -0.519133 52.029956 -20.223854 23.166712 -5.695222 1.218880 0.233528 8.831797 -9.936184 -52.234184 8.836400 7.125000 0.000000 0.000000 64.965500 -75.194900 -50.447800 
10.311409 17.897020 -43.867733 -3.396210 -6.753993 -2.720078 0.391878 2.140399 1.162520 -8.137933 -21.022610 -13.881269 -1.810660 8.688915 24.268296 2.356622 -2.377912 13.852303 2.245900 -9.360600 -26.929800 -3.809705 -3.059154 1.554799 35.996231 11.136777 1.716440 2.859826 -6.388837 21.319559 7.141067 -28.355779 -21.262535 -1.191800 -6.927500 19.500900 3.458663 0.867869 6.288250 4.694818 1.101456 14.440259 -4.189416 0.855932 -9.514514 -2.184577 0.429624 -13.817022 0.374151 0.707051 6.165141 -2.705300 0.178500 2.883500 -1.439638 -11.060552 0.967741 -89.004991 -1.930256 28.479237 25.904936 -26.043385 -7.247558 1.391796 0.941145 11.936455 10.242676 -32.175542 -5.057300 -7.125000 0.000000 0.000000 -12.858400 -3.139500 13.890100 -0.483019 11.338736 2.191844 84.786965 -0.639718 51.987029 -20.338428 23.311760 -5.752017 1.210453 0.243306 8.790735 -9.382271 -52.511316 8.417000 7.125000 0.000000 0.000000 66.321700 -75.078200 -51.546400 
10.310587 17.900308 -43.873136 -3.393158 -6.834908 -2.643830 0.386916 2.132500 1.148160 -8.095459 -21.020046 -13.914567 -1.823661 8.669835 24.188473 2.317863 -2.240867 13.784384 2.449000 -9.744700 -28.153800 -3.807704 -3.045337 1.540150 35.990719 11.221310 1.642327 2.861744 -6.398591 21.319402 7.145299 -28.354808 -21.222970 -1.174700 -6.879400 19.358600 3.503907 0.882888 6.430092 4.653462 1.146468 14.240015 -4.231465 0.860441 -9.672628 -2.021624 0.407187 -13.837639 0.225671 0.695929 6.305300 -2.783700 0.178300 2.935200 -1.454202 -11.024125 0.971608 -88.975233 -1.802092 28.525395 25.880063 -26.020778 -7.240520 1.397032 0.941197 11.889334 10.104335 -32.298803 -4.992200 -7.125000 0.000000 0.000000 -12.946200 -3.239200 14.011400 -0.466770 11.348987 2.200442 84.919796 -0.809216 51.839727 -20.408722 23.403087 -5.786467 1.202419 0.253175 8.678245 -9.186170 -52.718082 8.275600 7.125000 0.000000 0.000000 67.206900 -75.068200 -52.340500 
